<svg xmlns="http://www.w3.org/2000/svg" viewBox="0 0 333 187"><g fill="none" stroke-width="2"><path stroke="#83e5f8" d="M158.25 43.96c-.85.81-1.93 1.51-2.66 2.37q-24.99 29.6-49.78 59.19-.32.38.07.69l52.37 42.25" vector-effect="non-scaling-stroke"/><path stroke="#82add0" d="m158.25 148.46.38.32q.41.36.84.01l51.93-42.38a.8.8 0 0 0 .11-1.14l-51.99-62q-.33-.39-.78-.14-.43.25-.49.83" vector-effect="non-scaling-stroke"/><path stroke="#0693c9" d="m158.25 148.46.35-.3q.25-.22.27-.54.51-6.93-.37-13.83" vector-effect="non-scaling-stroke"/><path stroke="#82add0" d="M158.5 133.79q9.41-1.34 8.79-10.85-.03-.53.38-.87l14.18-11.72a.84.83-45.3 0 1 1.06-.01c10.43 8.38 19.53-13.31 4.68-15.19-1.57-.2-3.13.41-4.8.61q-.52.06-.86-.33l-15.46-17.47q-.35-.39-.21-.9 2.65-10.19-7.51-12.35" vector-effect="non-scaling-stroke"/><path stroke="#0693c9" d="M158.75 64.71q.57-10.4-.5-20.75" vector-effect="non-scaling-stroke"/><path stroke="#83e5f8" d="M158.75 64.71q-10.21 1.7-8.25 11.63a1.53 1.52 60.6 0 1-.36 1.3L134.1 95.33q-.34.38-.83.23-7.57-2.35-10.73 3.37c-4.25 7.7 3.88 16.01 11.41 11.58q.47-.27.89.06l15.22 11.95q.41.33.38.84-.55 8.85 8.06 10.43" vector-effect="non-scaling-stroke"/><path stroke="#83e5f8" d="M155.26 81.44c-5.93 5.15-11.78 11.17-17.07 17.27q-.28.32-.25.74l.44 7.52q.03.49.41.8l13.69 11.03q.41.32.91.22c2.18-.46 3.06-1.79 3.08-4.1q.15-16.46-.11-32.99a.66.66 0 0 0-1.1-.49" vector-effect="non-scaling-stroke"/><path stroke="#82add0" d="M162.66 81.38a.95.95 0 0 0-1.63.63c-.39 10.79-.27 21.56-.29 32.36 0 2.28 1.17 3.37 3.21 3.87q.57.14 1.02-.22l13.79-11.1q.39-.32.41-.82l.3-6.5q.03-.58-.37-1l-16.44-17.22" vector-effect="non-scaling-stroke"/></g><path fill="#fff" d="M0 0h333v187H0V0Zm158.25 43.96c-.85.81-1.93 1.51-2.66 2.37q-24.99 29.6-49.78 59.19-.32.38.07.69l52.37 42.25.38.32q.41.36.84.01l51.93-42.38a.8.8 0 0 0 .11-1.14l-51.99-62q-.33-.39-.78-.14-.43.25-.49.83Z"/><path fill="#045aa1" d="m158.25 148.46.35-.3q.25-.22.27-.54.51-6.93-.37-13.83 9.41-1.34 8.79-10.85-.03-.53.38-.87l14.18-11.72a.84.83-45.3 0 1 1.06-.01c10.43 8.38 19.53-13.31 4.68-15.19-1.57-.2-3.13.41-4.8.61q-.52.06-.86-.33l-15.46-17.47q-.35-.39-.21-.9 2.65-10.19-7.51-12.35.57-10.4-.5-20.75.06-.58.49-.83.45-.25.78.14l51.99 62a.8.8 0 0 1-.11 1.14l-51.93 42.38q-.43.35-.84-.01l-.38-.32Z"/><path fill="#07cbf0" d="M158.25 43.96q1.07 10.35.5 20.75-10.21 1.7-8.25 11.63a1.53 1.52 60.6 0 1-.36 1.3L134.1 95.33q-.34.38-.83.23-7.57-2.35-10.73 3.37c-4.25 7.7 3.88 16.01 11.41 11.58q.47-.27.89.06l15.22 11.95q.41.33.38.84-.55 8.85 8.06 10.43.88 6.9.37 13.83-.02.32-.27.54l-.35.3-52.37-42.25q-.39-.31-.07-.69 24.79-29.59 49.78-59.19c.73-.86 1.81-1.56 2.66-2.37Z"/><path fill="#fff" d="M158.75 64.71q10.16 2.16 7.51 12.35-.14.51.21.9l15.46 17.47q.34.39.86.33c1.67-.2 3.23-.81 4.8-.61 14.85 1.88 5.75 23.57-4.68 15.19a.84.83-45.3 0 0-1.06.01l-14.18 11.72q-.41.34-.38.87.62 9.51-8.79 10.85-8.61-1.58-8.06-10.43.03-.51-.38-.84l-15.22-11.95q-.42-.33-.89-.06c-7.53 4.43-15.66-3.88-11.41-11.58q3.16-5.72 10.73-3.37.49.15.83-.23l16.04-17.69a1.53 1.52 60.6 0 0 .36-1.3q-1.96-9.93 8.25-11.63Zm-3.49 16.73c-5.93 5.15-11.78 11.17-17.07 17.27q-.28.32-.25.74l.44 7.52q.03.49.41.8l13.69 11.03q.41.32.91.22c2.18-.46 3.06-1.79 3.08-4.1q.15-16.46-.11-32.99a.66.66 0 0 0-1.1-.49Zm7.4-.06a.95.95 0 0 0-1.63.63c-.39 10.79-.27 21.56-.29 32.36 0 2.28 1.17 3.37 3.21 3.87q.57.14 1.02-.22l13.79-11.1q.39-.32.41-.82l.3-6.5q.03-.58-.37-1l-16.44-17.22Z"/><path fill="#07cbf0" d="M138.19 98.71c5.29-6.1 11.14-12.12 17.07-17.27a.66.66 0 0 1 1.1.49q.26 16.53.11 32.99c-.02 2.31-.9 3.64-3.08 4.1q-.5.1-.91-.22l-13.69-11.03q-.38-.31-.41-.8l-.44-7.52q-.03-.42.25-.74Z"/><path fill="#045aa1" d="M162.66 81.38 179.1 98.6q.4.42.37 1l-.3 6.5q-.02.5-.41.82l-13.79 11.1q-.45.36-1.02.22c-2.04-.5-3.21-1.59-3.21-3.87.02-10.8-.1-21.57.29-32.36a.95.95 0 0 1 1.63-.63Z"/></svg>