<svg xmlns="http://www.w3.org/2000/svg" viewBox="0 0 702 319"><g fill="none" stroke="#80b9e3" stroke-width="2"><path d="M20 173.11a.36.36 0 0 0 .3.35l83.53 14.98a.36.36 0 0 0 .42-.35V44.47a.36.36 0 0 0-.42-.35L20.3 59.07a.36.36 0 0 0-.3.35v113.69M382.5 107.51V69a.75.75 0 0 0-.75-.75H373a.5.5 0 0 0-.5.5v90.5q0 .5.5.5h8.98q.51 0 .52-.51.01-16.25 0-32.49c0-9.98 4.05-20.57 15.35-21.57 11.22-1 15.83 7.28 15.85 17.32q.04 18.42.06 36.67a.6.6 0 0 0 .61.6l8.87-.03q.45 0 .46-.46.2-31.92-.02-40.96c-.62-25.18-28.43-28.79-40.73-10.67a.25.25 0 0 1-.45-.14M123.77 92.8l-2.89 3.98a.59.59 0 0 1-.9.07l-3.26-3.26a1.21 1.18 66.6 0 0-.83-.34h-3.64q-.5 0-.5.5v17.88q0 .55.39.93l8.86 8.7a1.32 1.32 0 0 1-1.59 2.08l-7.13-4.13a.36.35-75 0 0-.53.31v19.49a1.51 1.51 0 0 0 2.59 1.06l17.34-17.68q.49-.5 1.01-.04l.56.51a1.12 1.11 35.4 0 1 .23 1.36q-7.01 12.89-16.86 23.9-1.51 1.7-4.28 1.34-.59-.07-.59.52v9.48q0 .55.55.55 24.8-.02 49.6-.02c4.27 0 8.35-1.59 8.35-6.24q.01-36.57-.01-73.14c-.01-5.11-2.74-7.34-7.86-7.35q-25.06-.04-50.13 0-.5 0-.5.5v10a.47.46-6.5 0 0 .57.45c4.34-.96 8.69 4.55 11.38 7.45a.9.9 0 0 1 .07 1.14M218.08 150.68a.33.33 0 0 1-.33-.33v-29.52a.33.33 0 0 1 .33-.33h30.6a.33.33 0 0 0 .33-.34l-.16-8.59a.33.33 0 0 0-.33-.32h-30.44a.33.33 0 0 1-.33-.33V82.83a.33.33 0 0 1 .33-.33h32.87a.33.33 0 0 0 .33-.33l.04-8.59a.33.33 0 0 0-.33-.33h-43.16a.33.33 0 0 0-.33.33v85.84a.33.33 0 0 0 .33.33h45.34a.33.33 0 0 0 .33-.33v-8.43a.33.33 0 0 0-.33-.33l-35.09.02M339.95 97.16c-17.37 2.71-26 18.26-25.28 34.7 1.08 24.81 24.54 36.63 45.88 25.36q.45-.24.45-.74v-8.24a.46.46 0 0 0-.73-.38c-10.7 7.69-27.09 6.76-32.93-5.94-5.17-11.24-2.81-28.53 9.42-34.62 7.62-3.79 16.72-2.42 23.79 2.25q.52.35.52-.28l-.1-9.31a.7.67-79.6 0 0-.41-.62q-9.33-3.94-20.61-2.18M472.75 151v8.25q0 .5.5.5h8.98q.5 0 .5-.5.06-19.76-.01-39.52c-.09-26.68-24.6-27.38-42.3-17.68q-.42.23-.42.71v8.99q0 .64.54.29c6.43-4.17 11.37-6.88 19.25-6.88 9.28 0 13.34 6.31 12.95 14.98q-.02.54-.56.61c-14.29 1.83-33.66 1.75-37.51 17.13-6.19 24.7 25.99 31.27 37.57 12.98a.28.27-29.2 0 1 .51.14M507.87 107.77l.18-9.24a.52.52 0 0 0-.52-.53h-9.03a.5.5 0 0 0-.5.5v60.75q0 .5.5.5h8.99q.52 0 .52-.53-.05-15.82.02-31.62.04-6.96.94-9.96c2.5-8.36 10.14-13.68 18.87-12.31 11.23 1.77 11.65 14.25 11.68 23.43q.04 15.16-.07 30.41 0 .58.58.58h8.69q.47 0 .47-.47.21-31.72-.02-40.71c-.64-25.09-28.57-29.29-40.93-10.69a.2.2 0 0 1-.37-.11M606.32 150.21a.3.3 0 0 1 .55.18q-.07 4.7-.31 9.4c-1.2 23.84-26.02 24.21-41.66 15.09q-.65-.38-.65.37v9a.76.75-79.1 0 0 .47.7c16.14 6.64 42.71 6.34 49.46-13.53q2.52-7.41 2.53-12.24.09-30.33.02-60.69 0-.49-.49-.49h-8.87a.68.67-1.2 0 0-.68.7l.26 6.84a.43.43 0 0 1-.79.25c-4.14-6.52-10.37-9.16-18.13-9.22-37.66-.27-38.21 68.59.62 64.7q10.84-1.09 17.67-11.06M636.19 106.69c-7 8.7-8.79 20.87-6.65 31.45 2.9 14.37 11.57 22.69 26.47 23.09q12.32.33 21.73-5.29.51-.31.51-.91v-8.28q0-.79-.63-.31c-13.38 10.08-35.56 9.57-38.15-10.96q-.28-2.22-.41-3.42-.06-.57.51-.57l42.43-.21q.43-.01.46-.44.62-9.81-1.42-16.83c-6-20.62-32.09-23.18-44.85-7.32M283.88 135.54a.34.34 0 0 1 .58 0l14.49 24.05a.34.34 0 0 0 .29.16h10.78a.34.34 0 0 0 .29-.53l-19.87-29.71a.34.34 0 0 1-.01-.38l20.27-30.6a.34.34 0 0 0-.28-.53h-10.11a.34.34 0 0 0-.29.17l-15.1 25.35a.34.34 0 0 1-.59-.01l-14.28-25.34a.34.34 0 0 0-.3-.17h-10.78a.34.34 0 0 0-.29.52l19.69 30.83a.34.34 0 0 1-.01.38l-20.5 29.56a.34.34 0 0 0 .29.53l10.71-.11a.34.34 0 0 0 .29-.16l14.73-24.01M383.28 173.97a.26.26 0 0 0-.26-.26h-9.26a.26.26 0 0 0-.26.26v91.76a.26.26 0 0 0 .26.26h9.26a.26.26 0 0 0 .26-.26v-91.76M415.74 181.43a6.59 6.59 0 0 0-6.59-6.59 6.59 6.59 0 0 0-6.59 6.59 6.59 6.59 0 0 0 6.59 6.59 6.59 6.59 0 0 0 6.59-6.59M284.81 209.44c-4.73-24.24-26.37-36.39-50.07-31.19-16.63 3.64-26.71 15.03-30.52 31.34-6 25.72 5.48 55.87 35.55 57.44q3.21.17 6.46.2c31.64.37 43.74-31.36 38.58-57.79M312.26 213.38l-.01-9.13q0-.5-.5-.5l-9.21-.01q-.54 0-.54.54v60.97q0 .75.75.75h8.99a.51.51 0 0 0 .51-.51q-.01-16.14.01-32.3 0-7.4 1.16-10.74c2.88-8.28 12.59-13.82 20.85-11.18 7.52 2.4 9.4 9.33 9.8 17.12q.93 18.42.23 36.94-.02.67.65.67h8.76q.58 0 .57-.57-.05-19.49-.05-38.96c0-12.83-5.42-23.13-19.32-24.25q-14.03-1.13-22.34 11.25a.17.17 0 0 1-.31-.09M444.45 213.27l-.19-8.97q-.01-.52-.52-.52l-8.67-.1q-.56 0-.57.56l-.01 61.13q0 .63.63.63h8.62q.61 0 .6-.62-.27-17.72.04-35.43c.4-22.54 30.92-26.98 31.85-4.19q.81 19.95.29 39.17-.03 1.07 1.04 1.07h8.41q.56 0 .56-.57-.07-18.09 0-36.18c.05-15.77-5.94-28.69-23.97-27.01q-11.08 1.03-17.75 11.13a.2.19-29.1 0 1-.36-.1M512.06 237.25h42.73q1.07 0 1.14-1.07c.99-15.14-3.73-31.14-21.17-33.68-24.92-3.64-36.43 19.71-32.83 41.01 4.25 25.13 29.92 29.41 49.26 18.43a.68.68 0 0 0 .35-.61l-.06-8.82q0-.59-.47-.23c-14.94 11.31-39.44 8.82-39.32-14.66q0-.37.37-.37M414 204a.3.3 0 0 0-.3-.3h-9.64a.3.3 0 0 0-.3.3v61.7a.3.3 0 0 0 .3.3h9.64a.3.3 0 0 0 .3-.3V204" vector-effect="non-scaling-stroke"/><path d="M57.25 93.07a.32.32 0 0 1 .32-.32h19.3a.32.32 0 0 0 .32-.32L77.03 81a.32.32 0 0 0-.34-.32l-31.84 2.16a.32.32 0 0 0-.3.32l.14 59.66a.32.32 0 0 0 .28.32l31.17 3.53a.32.32 0 0 0 .36-.32v-12.09a.32.32 0 0 0-.29-.32l-18.67-1.47a.32.32 0 0 1-.29-.32v-13.23a.32.32 0 0 1 .33-.32l15.84.46a.32.32 0 0 0 .33-.32V107.3a.32.32 0 0 0-.31-.32l-15.88-.42a.32.32 0 0 1-.31-.32V93.07M150.5 93.67v11.61q0 .52-.35.91l-3.37 3.73q-.43.47.1.84l4.09 2.81a.8.78-50.7 0 0 1.02-.11l7.15-7.5q.36-.38.36-.91V85.79a1.4 1.39 2 0 0-1.3-1.39q-8.43-.58-17.28-.28c-3.63.13-4.58 2.26-6.73 4.82q-8.07 9.58-13.84 20.45a1.23 1.23 0 0 0 1.97 1.44l16.8-17.15a1.5 1.47-67.4 0 1 1.06-.45l9.8-.07q.52 0 .52.51" vector-effect="non-scaling-stroke"/><path d="m149.85 140.49-11.3.01a1.44 1.39-23.3 0 1-.95-.36l-3.77-3.45a.69.68-51.1 0 0-1.02.11l-2.85 3.97q-.38.53.09.99l7.74 7.4a1.26 1.24-23 0 0 .86.34h18.85a2 2 0 0 0 2-2v-17.77a3.33 3.32 21.3 0 0-1.08-2.45q-10.51-9.62-23.29-16.67c-.98-.54-2.34-.69-2.7.61a.64.63-60 0 0 .16.62l17.52 17.35q.39.38.39.92v9.73a.65.65 0 0 1-.65.65M448.77 133.58c-5.47 3.43-6.19 11.45-1.83 15.7 4.67 4.56 12.56 4.5 17.88 1.03 7.57-4.94 8.12-12.59 7.89-21.11q-.01-.54-.54-.47c-4.99.63-17.79 1.33-23.4 4.85M575.44 111.69c-5.23 7.35-5.93 15.58-4.89 24.32 2.91 24.39 35.83 21.14 36.17-3.27.13-9.49 1.29-18.67-7.57-24.67-7.09-4.8-18.45-3.79-23.71 3.62M672.22 122.53c.96-23.85-29.63-22.38-32.85-.22q-.1.69.59.69h31.77q.47 0 .49-.47M273.58 208.97c-5.11-21.61-30.6-29.53-47.56-16.03-18.57 14.79-16.32 50.14 4.35 61.84 8.96 5.07 22.21 4.09 30.7-1.38 14.41-9.29 16.16-28.95 12.51-44.43M545.42 228.07c.95-23.66-30.36-22.36-33.58-.05q-.07.48.42.48h32.72q.42 0 .44-.43" vector-effect="non-scaling-stroke"/></g><path fill="#fff" d="M0 0h702v319H0V0Zm20 173.11a.36.36 0 0 0 .3.35l83.53 14.98a.36.36 0 0 0 .42-.35V44.47a.36.36 0 0 0-.42-.35L20.3 59.07a.36.36 0 0 0-.3.35v113.69Zm362.5-65.6V69a.75.75 0 0 0-.75-.75H373a.5.5 0 0 0-.5.5v90.5q0 .5.5.5h8.98q.51 0 .52-.51.01-16.25 0-32.49c0-9.98 4.05-20.57 15.35-21.57 11.22-1 15.83 7.28 15.85 17.32q.04 18.42.06 36.67a.6.6 0 0 0 .61.6l8.87-.03q.45 0 .46-.46.2-31.92-.02-40.96c-.62-25.18-28.43-28.79-40.73-10.67a.25.25 0 0 1-.45-.14ZM123.77 92.8l-2.89 3.98a.59.59 0 0 1-.9.07l-3.26-3.26a1.21 1.18 66.6 0 0-.83-.34h-3.64q-.5 0-.5.5v17.88q0 .55.39.93l8.86 8.7a1.32 1.32 0 0 1-1.59 2.08l-7.13-4.13a.36.35-75 0 0-.53.31v19.49a1.51 1.51 0 0 0 2.59 1.06l17.34-17.68q.49-.5 1.01-.04l.56.51a1.12 1.11 35.4 0 1 .23 1.36q-7.01 12.89-16.86 23.9-1.51 1.7-4.28 1.34-.59-.07-.59.52v9.48q0 .55.55.55 24.8-.02 49.6-.02c4.27 0 8.35-1.59 8.35-6.24q.01-36.57-.01-73.14c-.01-5.11-2.74-7.34-7.86-7.35q-25.06-.04-50.13 0-.5 0-.5.5v10a.47.46-6.5 0 0 .57.45c4.34-.96 8.69 4.55 11.38 7.45a.9.9 0 0 1 .07 1.14Zm94.31 57.88a.33.33 0 0 1-.33-.33v-29.52a.33.33 0 0 1 .33-.33h30.6a.33.33 0 0 0 .33-.34l-.16-8.59a.33.33 0 0 0-.33-.32h-30.44a.33.33 0 0 1-.33-.33V82.83a.33.33 0 0 1 .33-.33h32.87a.33.33 0 0 0 .33-.33l.04-8.59a.33.33 0 0 0-.33-.33h-43.16a.33.33 0 0 0-.33.33v85.84a.33.33 0 0 0 .33.33h45.34a.33.33 0 0 0 .33-.33v-8.43a.33.33 0 0 0-.33-.33l-35.09.02Zm121.87-53.52c-17.37 2.71-26 18.26-25.28 34.7 1.08 24.81 24.54 36.63 45.88 25.36q.45-.24.45-.74v-8.24a.46.46 0 0 0-.73-.38c-10.7 7.69-27.09 6.76-32.93-5.94-5.17-11.24-2.81-28.53 9.42-34.62 7.62-3.79 16.72-2.42 23.79 2.25q.52.35.52-.28l-.1-9.31a.7.67-79.6 0 0-.41-.62q-9.33-3.94-20.61-2.18ZM472.75 151v8.25q0 .5.5.5h8.98q.5 0 .5-.5.06-19.76-.01-39.52c-.09-26.68-24.6-27.38-42.3-17.68q-.42.23-.42.71v8.99q0 .64.54.29c6.43-4.17 11.37-6.88 19.25-6.88 9.28 0 13.34 6.31 12.95 14.98q-.02.54-.56.61c-14.29 1.83-33.66 1.75-37.51 17.13-6.19 24.7 25.99 31.27 37.57 12.98a.28.27-29.2 0 1 .51.14Zm35.12-43.23.18-9.24a.52.52 0 0 0-.52-.53h-9.03a.5.5 0 0 0-.5.5v60.75q0 .5.5.5h8.99q.52 0 .52-.53-.05-15.82.02-31.62.04-6.96.94-9.96c2.5-8.36 10.14-13.68 18.87-12.31 11.23 1.77 11.65 14.25 11.68 23.43q.04 15.16-.07 30.41 0 .58.58.58h8.69q.47 0 .47-.47.21-31.72-.02-40.71c-.64-25.09-28.57-29.29-40.93-10.69a.2.2 0 0 1-.37-.11Zm98.45 42.44a.3.3 0 0 1 .55.18q-.07 4.7-.31 9.4c-1.2 23.84-26.02 24.21-41.66 15.09q-.65-.38-.65.37v9a.76.75-79.1 0 0 .47.7c16.14 6.64 42.71 6.34 49.46-13.53q2.52-7.41 2.53-12.24.09-30.33.02-60.69 0-.49-.49-.49h-8.87a.68.67-1.2 0 0-.68.7l.26 6.84a.43.43 0 0 1-.79.25c-4.14-6.52-10.37-9.16-18.13-9.22-37.66-.27-38.21 68.59.62 64.7q10.84-1.09 17.67-11.06Zm29.87-43.52c-7 8.7-8.79 20.87-6.65 31.45 2.9 14.37 11.57 22.69 26.47 23.09q12.32.33 21.73-5.29.51-.31.51-.91v-8.28q0-.79-.63-.31c-13.38 10.08-35.56 9.57-38.15-10.96q-.28-2.22-.41-3.42-.06-.57.51-.57l42.43-.21q.43-.01.46-.44.62-9.81-1.42-16.83c-6-20.62-32.09-23.18-44.85-7.32Zm-352.31 28.85a.34.34 0 0 1 .58 0l14.49 24.05a.34.34 0 0 0 .29.16h10.78a.34.34 0 0 0 .29-.53l-19.87-29.71a.34.34 0 0 1-.01-.38l20.27-30.6a.34.34 0 0 0-.28-.53h-10.11a.34.34 0 0 0-.29.17l-15.1 25.35a.34.34 0 0 1-.59-.01l-14.28-25.34a.34.34 0 0 0-.3-.17h-10.78a.34.34 0 0 0-.29.52l19.69 30.83a.34.34 0 0 1-.01.38l-20.5 29.56a.34.34 0 0 0 .29.53l10.71-.11a.34.34 0 0 0 .29-.16l14.73-24.01Zm99.4 38.43a.26.26 0 0 0-.26-.26h-9.26a.26.26 0 0 0-.26.26v91.76a.26.26 0 0 0 .26.26h9.26a.26.26 0 0 0 .26-.26v-91.76Zm32.46 7.46a6.59 6.59 0 0 0-6.59-6.59 6.59 6.59 0 0 0-6.59 6.59 6.59 6.59 0 0 0 6.59 6.59 6.59 6.59 0 0 0 6.59-6.59Zm-130.93 28.01c-4.73-24.24-26.37-36.39-50.07-31.19-16.63 3.64-26.71 15.03-30.52 31.34-6 25.72 5.48 55.87 35.55 57.44q3.21.17 6.46.2c31.64.37 43.74-31.36 38.58-57.79Zm27.45 3.94-.01-9.13q0-.5-.5-.5l-9.21-.01q-.54 0-.54.54v60.97q0 .75.75.75h8.99a.51.51 0 0 0 .51-.51q-.01-16.14.01-32.3 0-7.4 1.16-10.74c2.88-8.28 12.59-13.82 20.85-11.18 7.52 2.4 9.4 9.33 9.8 17.12q.93 18.42.23 36.94-.02.67.65.67h8.76q.58 0 .57-.57-.05-19.49-.05-38.96c0-12.83-5.42-23.13-19.32-24.25q-14.03-1.13-22.34 11.25a.17.17 0 0 1-.31-.09Zm132.19-.11-.19-8.97q-.01-.52-.52-.52l-8.67-.1q-.56 0-.57.56l-.01 61.13q0 .63.63.63h8.62q.61 0 .6-.62-.27-17.72.04-35.43c.4-22.54 30.92-26.98 31.85-4.19q.81 19.95.29 39.17-.03 1.07 1.04 1.07h8.41q.56 0 .56-.57-.07-18.09 0-36.18c.05-15.77-5.94-28.69-23.97-27.01q-11.08 1.03-17.75 11.13a.2.19-29.1 0 1-.36-.1Zm67.61 23.98h42.73q1.07 0 1.14-1.07c.99-15.14-3.73-31.14-21.17-33.68-24.92-3.64-36.43 19.71-32.83 41.01 4.25 25.13 29.92 29.41 49.26 18.43a.68.68 0 0 0 .35-.61l-.06-8.82q0-.59-.47-.23c-14.94 11.31-39.44 8.82-39.32-14.66q0-.37.37-.37ZM414 204a.3.3 0 0 0-.3-.3h-9.64a.3.3 0 0 0-.3.3v61.7a.3.3 0 0 0 .3.3h9.64a.3.3 0 0 0 .3-.3V204Z"/><path fill="#0072c6" d="M20 173.11V59.42a.36.36 0 0 1 .3-.35l83.53-14.95a.36.36 0 0 1 .42.35v143.62a.36.36 0 0 1-.42.35L20.3 173.46a.36.36 0 0 1-.3-.35Zm37.25-80.04a.32.32 0 0 1 .32-.32h19.3a.32.32 0 0 0 .32-.32L77.03 81a.32.32 0 0 0-.34-.32l-31.84 2.16a.32.32 0 0 0-.3.32l.14 59.66a.32.32 0 0 0 .28.32l31.17 3.53a.32.32 0 0 0 .36-.32v-12.09a.32.32 0 0 0-.29-.32l-18.67-1.47a.32.32 0 0 1-.29-.32v-13.23a.32.32 0 0 1 .33-.32l15.84.46a.32.32 0 0 0 .33-.32V107.3a.32.32 0 0 0-.31-.32l-15.88-.42a.32.32 0 0 1-.31-.32V93.07ZM382.5 107.51a.25.25 0 0 0 .45.14c12.3-18.12 40.11-14.51 40.73 10.67q.22 9.04.02 40.96-.01.46-.46.46l-8.87.03a.6.6 0 0 1-.61-.6q-.02-18.25-.06-36.67c-.02-10.04-4.63-18.32-15.85-17.32-11.3 1-15.35 11.59-15.35 21.57q.01 16.24 0 32.49-.01.51-.52.51H373q-.5 0-.5-.5v-90.5a.5.5 0 0 1 .5-.5h8.75a.75.75 0 0 1 .75.75v38.51ZM123.7 91.66c-2.69-2.9-7.04-8.41-11.38-7.45a.47.46-6.5 0 1-.57-.45v-10q0-.5.5-.5 25.07-.04 50.13 0c5.12.01 7.85 2.24 7.86 7.35q.02 36.57.01 73.14c0 4.65-4.08 6.24-8.35 6.24q-24.8 0-49.6.02-.55 0-.55-.55v-9.48q0-.59.59-.52 2.77.36 4.28-1.34 9.85-11.01 16.86-23.9a1.12 1.11 35.4 0 0-.23-1.36l-.56-.51q-.52-.46-1.01.04l-17.34 17.68a1.51 1.51 0 0 1-2.59-1.06v-19.49a.36.35-75 0 1 .53-.31l7.13 4.13a1.32 1.32 0 0 0 1.59-2.08l-8.86-8.7q-.39-.38-.39-.93V93.75q0-.5.5-.5h3.64a1.21 1.18 66.6 0 1 .83.34l3.26 3.26a.59.59 0 0 0 .9-.07l2.89-3.98a.9.9 0 0 0-.07-1.14Zm26.8 2.01v11.61q0 .52-.35.91l-3.37 3.73q-.43.47.1.84l4.09 2.81a.8.78-50.7 0 0 1.02-.11l7.15-7.5q.36-.38.36-.91V85.79a1.4 1.39 2 0 0-1.3-1.39q-8.43-.58-17.28-.28c-3.63.13-4.58 2.26-6.73 4.82q-8.07 9.58-13.84 20.45a1.23 1.23 0 0 0 1.97 1.44l16.8-17.15a1.5 1.47-67.4 0 1 1.06-.45l9.8-.07q.52 0 .52.51Zm-.65 46.82-11.3.01a1.44 1.39-23.3 0 1-.95-.36l-3.77-3.45a.69.68-51.1 0 0-1.02.11l-2.85 3.97q-.38.53.09.99l7.74 7.4a1.26 1.24-23 0 0 .86.34h18.85a2 2 0 0 0 2-2v-17.77a3.33 3.32 21.3 0 0-1.08-2.45q-10.51-9.62-23.29-16.67c-.98-.54-2.34-.69-2.7.61a.64.63-60 0 0 .16.62l17.52 17.35q.39.38.39.92v9.73a.65.65 0 0 1-.65.65ZM218.08 150.68l35.09-.02a.33.33 0 0 1 .33.33v8.43a.33.33 0 0 1-.33.33h-45.34a.33.33 0 0 1-.33-.33V73.58a.33.33 0 0 1 .33-.33h43.16a.33.33 0 0 1 .33.33l-.04 8.59a.33.33 0 0 1-.33.33h-32.87a.33.33 0 0 0-.33.33v28.09a.33.33 0 0 0 .33.33h30.44a.33.33 0 0 1 .33.32l.16 8.59a.33.33 0 0 1-.33.34h-30.6a.33.33 0 0 0-.33.33v29.52a.33.33 0 0 0 .33.33Z"/><path fill="#fff" d="M57.25 93.07v13.17a.32.32 0 0 0 .31.32l15.88.42a.32.32 0 0 1 .31.32v11.44a.32.32 0 0 1-.33.32l-15.84-.46a.32.32 0 0 0-.33.32v13.23a.32.32 0 0 0 .29.32l18.67 1.47a.32.32 0 0 1 .29.32v12.09a.32.32 0 0 1-.36.32l-31.17-3.53a.32.32 0 0 1-.28-.32l-.14-59.66a.32.32 0 0 1 .3-.32l31.84-2.16a.32.32 0 0 1 .34.32l.16 11.43a.32.32 0 0 1-.32.32h-19.3a.32.32 0 0 0-.32.32ZM149.98 93.16l-9.8.07a1.5 1.47-67.4 0 0-1.06.45l-16.8 17.15a1.23 1.23 0 0 1-1.97-1.44q5.77-10.87 13.84-20.45c2.15-2.56 3.1-4.69 6.73-4.82q8.85-.3 17.28.28a1.4 1.39 2 0 1 1.3 1.39v19.26q0 .53-.36.91l-7.15 7.5a.8.78-50.7 0 1-1.02.11l-4.09-2.81q-.53-.37-.1-.84l3.37-3.73q.35-.39.35-.91V93.67q0-.51-.52-.51Z"/><path fill="#0072c6" d="M314.67 131.86c-.72-16.44 7.91-31.99 25.28-34.7q11.28-1.76 20.61 2.18a.7.67-79.6 0 1 .41.62l.1 9.31q0 .63-.52.28c-7.07-4.67-16.17-6.04-23.79-2.25-12.23 6.09-14.59 23.38-9.42 34.62 5.84 12.7 22.23 13.63 32.93 5.94a.46.46 0 0 1 .73.38v8.24q0 .5-.45.74c-21.34 11.27-44.8-.55-45.88-25.36ZM472.75 151a.28.27-29.2 0 0-.51-.14c-11.58 18.29-43.76 11.72-37.57-12.98 3.85-15.38 23.22-15.3 37.51-17.13q.54-.07.56-.61c.39-8.67-3.67-14.98-12.95-14.98-7.88 0-12.82 2.71-19.25 6.88q-.54.35-.54-.29v-8.99q0-.48.42-.71c17.7-9.7 42.21-9 42.3 17.68q.07 19.76.01 39.52 0 .5-.5.5h-8.98q-.5 0-.5-.5V151Zm-23.98-17.42c-5.47 3.43-6.19 11.45-1.83 15.7 4.67 4.56 12.56 4.5 17.88 1.03 7.57-4.94 8.12-12.59 7.89-21.11q-.01-.54-.54-.47c-4.99.63-17.79 1.33-23.4 4.85ZM507.87 107.77a.2.2 0 0 0 .37.11c12.36-18.6 40.29-14.4 40.93 10.69q.23 8.99.02 40.71 0 .47-.47.47h-8.69q-.58 0-.58-.58.11-15.25.07-30.41c-.03-9.18-.45-21.66-11.68-23.43-8.73-1.37-16.37 3.95-18.87 12.31q-.9 3-.94 9.96-.07 15.8-.02 31.62 0 .53-.52.53h-8.99q-.5 0-.5-.5V98.5a.5.5 0 0 1 .5-.5h9.03a.52.52 0 0 1 .52.53l-.18 9.24ZM606.32 150.21q-6.83 9.97-17.67 11.06c-38.83 3.89-38.28-64.97-.62-64.7 7.76.06 13.99 2.7 18.13 9.22a.43.43 0 0 0 .79-.25l-.26-6.84a.68.67-1.2 0 1 .68-.7h8.87q.49 0 .49.49.07 30.36-.02 60.69-.01 4.83-2.53 12.24c-6.75 19.87-33.32 20.17-49.46 13.53a.76.75-79.1 0 1-.47-.7v-9q0-.75.65-.37c15.64 9.12 40.46 8.75 41.66-15.09q.24-4.7.31-9.4a.3.3 0 0 0-.55-.18Zm-30.88-38.52c-5.23 7.35-5.93 15.58-4.89 24.32 2.91 24.39 35.83 21.14 36.17-3.27.13-9.49 1.29-18.67-7.57-24.67-7.09-4.8-18.45-3.79-23.71 3.62ZM636.19 106.69c12.76-15.86 38.85-13.3 44.85 7.32q2.04 7.02 1.42 16.83-.03.43-.46.44l-42.43.21q-.57 0-.51.57.13 1.2.41 3.42c2.59 20.53 24.77 21.04 38.15 10.96q.63-.48.63.31v8.28q0 .6-.51.91-9.41 5.62-21.73 5.29c-14.9-.4-23.57-8.72-26.47-23.09-2.14-10.58-.35-22.75 6.65-31.45Zm36.03 15.84c.96-23.85-29.63-22.38-32.85-.22q-.1.69.59.69h31.77q.47 0 .49-.47ZM283.88 135.54l-14.73 24.01a.34.34 0 0 1-.29.16l-10.71.11a.34.34 0 0 1-.29-.53l20.5-29.56a.34.34 0 0 0 .01-.38l-19.69-30.83a.34.34 0 0 1 .29-.52h10.78a.34.34 0 0 1 .3.17l14.28 25.34a.34.34 0 0 0 .59.01l15.1-25.35a.34.34 0 0 1 .29-.17h10.11a.34.34 0 0 1 .28.53l-20.27 30.6a.34.34 0 0 0 .01.38l19.87 29.71a.34.34 0 0 1-.29.53h-10.78a.34.34 0 0 1-.29-.16l-14.49-24.05a.34.34 0 0 0-.58 0Z"/><path fill="#fff" d="M575.44 111.69c5.26-7.41 16.62-8.42 23.71-3.62 8.86 6 7.7 15.18 7.57 24.67-.34 24.41-33.26 27.66-36.17 3.27-1.04-8.74-.34-16.97 4.89-24.32ZM639.37 122.31c3.22-22.16 33.81-23.63 32.85.22q-.02.47-.49.47h-31.77q-.69 0-.59-.69ZM150.5 139.84v-9.73q0-.54-.39-.92l-17.52-17.35a.64.63-60 0 1-.16-.62c.36-1.3 1.72-1.15 2.7-.61q12.78 7.05 23.29 16.67a3.33 3.32 21.3 0 1 1.08 2.45v17.77a2 2 0 0 1-2 2h-18.85a1.26 1.24-23 0 1-.86-.34l-7.74-7.4q-.47-.46-.09-.99l2.85-3.97a.69.68-51.1 0 1 1.02-.11l3.77 3.45a1.44 1.39-23.3 0 0 .95.36l11.3-.01a.65.65 0 0 0 .65-.65ZM448.77 133.58c5.61-3.52 18.41-4.22 23.4-4.85q.53-.07.54.47c.23 8.52-.32 16.17-7.89 21.11-5.32 3.47-13.21 3.53-17.88-1.03-4.36-4.25-3.64-12.27 1.83-15.7Z"/><rect width="9.78" height="92.28" x="373.5" y="173.71" fill="#0072c6" rx=".26"/><circle cx="409.15" cy="181.43" r="6.59" fill="#0072c6"/><path fill="#0072c6" d="M234.74 178.25c23.7-5.2 45.34 6.95 50.07 31.19 5.16 26.43-6.94 58.16-38.58 57.79q-3.25-.03-6.46-.2c-30.07-1.57-41.55-31.72-35.55-57.44 3.81-16.31 13.89-27.7 30.52-31.34Zm38.84 30.72c-5.11-21.61-30.6-29.53-47.56-16.03-18.57 14.79-16.32 50.14 4.35 61.84 8.96 5.07 22.21 4.09 30.7-1.38 14.41-9.29 16.16-28.95 12.51-44.43Z"/><path fill="#fff" d="M226.02 192.94c16.96-13.5 42.45-5.58 47.56 16.03 3.65 15.48 1.9 35.14-12.51 44.43-8.49 5.47-21.74 6.45-30.7 1.38-20.67-11.7-22.92-47.05-4.35-61.84Z"/><path fill="#0072c6" d="M312.26 213.38a.17.17 0 0 0 .31.09q8.31-12.38 22.34-11.25c13.9 1.12 19.32 11.42 19.32 24.25q0 19.47.05 38.96.01.57-.57.57h-8.76q-.67 0-.65-.67.7-18.52-.23-36.94c-.4-7.79-2.28-14.72-9.8-17.12-8.26-2.64-17.97 2.9-20.85 11.18q-1.16 3.34-1.16 10.74-.02 16.16-.01 32.3a.51.51 0 0 1-.51.51h-8.99q-.75 0-.75-.75v-60.97q0-.54.54-.54l9.21.01q.5 0 .5.5l.01 9.13ZM444.45 213.27a.2.19-29.1 0 0 .36.1q6.67-10.1 17.75-11.13c18.03-1.68 24.02 11.24 23.97 27.01q-.07 18.09 0 36.18 0 .57-.56.57h-8.41q-1.07 0-1.04-1.07.52-19.22-.29-39.17c-.93-22.79-31.45-18.35-31.85 4.19q-.31 17.71-.04 35.43.01.62-.6.62h-8.62q-.63 0-.63-.63l.01-61.13q.01-.56.57-.56l8.67.1q.51 0 .52.52l.19 8.97ZM511.69 237.62c-.12 23.48 24.38 25.97 39.32 14.66q.47-.36.47.23l.06 8.82a.68.68 0 0 1-.35.61c-19.34 10.98-45.01 6.7-49.26-18.43-3.6-21.3 7.91-44.65 32.83-41.01 17.44 2.54 22.16 18.54 21.17 33.68q-.07 1.07-1.14 1.07h-42.73q-.37 0-.37.37Zm33.73-9.55c.95-23.66-30.36-22.36-33.58-.05q-.07.48.42.48h32.72q.42 0 .44-.43Z"/><rect width="10.24" height="62.3" x="403.76" y="203.7" fill="#0072c6" rx=".3"/><path fill="#fff" d="M511.84 228.02c3.22-22.31 34.53-23.61 33.58.05q-.02.43-.44.43h-32.72q-.49 0-.42-.48Z"/></svg>