<svg xmlns="http://www.w3.org/2000/svg" viewBox="0 0 333 187"><g fill="none" stroke-width="2"><path stroke="#8cb0d1" d="m54.71 90.4.05-20.23a1 1 0 0 0-1.14-1l-23.14 3.29a1.01 1 86.1 0 0-.86 1l.16 16.97a1 .99.6 0 0 .98.99q10.12.19 20.24.03.09 0 1.37-.12.6-.06 1.14.05a1 1 0 0 0 1.2-.98m-26.38 1.15a.34.34 0 0 0 .34-.34l-.1-18.1a.34.34 0 0 0-.38-.34l-18.4 2.56a.34.34 0 0 0-.29.34v15.38a.34.34 0 0 0 .34.34l18.49.16" vector-effect="non-scaling-stroke"/><path stroke="#85a6c4" d="M198.49 83.8q-.09-1.88.26-3.72c.43-2.2 2.01-3.14 4.13-2.42a1 .99 18.4 0 0 1.27-.63q.37-1.11-1.09-2.48a1 .99 60.1 0 0-.91-.25q-6.08 1.42-6.66 6.24c-.2 1.63 1.23 4.98-2.34 4.24a1 1 0 0 0-1.17.73q-.67 2.53 2.35 1.95a1 1 0 0 1 1.19.99l-.06 15.2a1 .99 2.8 0 0 .91 1l1.04.09a1 .99 2.6 0 0 1.09-.99V88.41a1 1 0 0 1 1.02-1l5.99.12a1 1 0 0 1 .98.99q.04 4.7 0 9.43c-.06 5.08 1.9 8.8 7.61 6.56a1.01 1-5.1 0 0 .62-.73q.36-1.79-1.39-1.45-3.64.73-3.68-1.82l-.2-11.99a1 1 0 0 1 1-1.02h3.21a1 .99-1.6 0 0 1-1.05l-.04-.75a1 1 0 0 0-1-.95h-3.12a1 1 0 0 1-1-1v-3.44a1 .99 82.3 0 0-1.26-.96l-1 .27a1.01 1 82.5 0 0-.74.97v3.16a1 1 0 0 1-1 1h-6.01a1 1 0 0 1-1-.95m-95.31-6.23a2.04 2.04 0 0 0-2.04-2.04 2.04 2.04 0 0 0-2.04 2.04 2.04 2.04 0 0 0 2.04 2.04 2.04 2.04 0 0 0 2.04-2.04M68.5 85.44q0-3.75 1.53-.32l8.58 19.2q.89 1.97 1.82.02 4.86-10.18 9.62-21.7c.06-.15.07-.16.25-.14a.26.23-86.1 0 1 .2.25v20.92a1 1 0 0 0 .99 1l1.25.02a1 1 0 0 0 1.01-1V77.75a1 1 0 0 0-1-1h-2.42a1.01 1-77.5 0 0-.91.59l-8.9 19.95q-.92 2.06-1.83-.01l-8.77-19.93a1 .99 78.2 0 0-.91-.6h-2.75a1 1 0 0 0-1 1l.05 25.91a.99.99 0 0 0 .62.92q.81.34 1.72.2a.99.99 0 0 0 .85-.98V85.44m161.295-7.264a.67.67 0 0 0-.667-.673l-1.82-.006a.67.67 0 0 0-.673.668l-.09 25.86a.67.67 0 0 0 .668.672l1.82.006a.67.67 0 0 0 .672-.668l.09-25.86M257.2 88.74q.08 5.37.17 10.77.1 6.24 6.37 5.28 1.7-.26 1.54-1.6a1 1 0 0 0-1.16-.86q-3.74.63-3.83-3.3-.1-5.12.02-10.3a1.01 1-89.1 0 1 1-.98h2.82a1.01 1 3.2 0 0 1-.89l.05-.5a1 1 0 0 0-.99-1.11h-2.94a1 1 0 0 1-1-1v-3.42a1 1 0 0 0-1.21-.98l-1.01.22a1 1 0 0 0-.79.99l.02 3.18a1 1 0 0 1-1.21.98q-2.41-.51-2.25 1.61a.99.98-2.1 0 0 1 .92h1.4a1 1 0 0 1 1 .99m-141.88 13.68c-10.77-1.91-4.7-20.12 4.44-14.59q2.31 1.4 1.44-2.15a1.01 1-87.3 0 0-.64-.71c-16.86-5.85-21.1 24.14.1 19.51a1.01 1 81.6 0 0 .78-1.05l-.06-.93a1 1 0 0 0-1.48-.81q-2.12 1.17-4.58.73m28.828 2.9a10.65 9.95 96.1 0 0 11.026-9.533 10.65 9.95 96.1 0 0-8.762-11.647 10.65 9.95 96.1 0 0-11.026 9.533 10.65 9.95 96.1 0 0 8.762 11.647m17.042-14.03q-1.16-4.23 3.27-4.32c1.62-.04 6.14 2.92 3.74-1.77a.98.98 0 0 0-.59-.49c-3.81-1.2-8.7-.12-9.96 4.02-1.37 4.49 3.04 6.72 7.14 8.4a.98.93 82.8 0 1 .45.37q3.21 4.92-3.29 5-1.26.02-3.05-.92a1 1 0 0 0-1.46.84l-.04.92a1 .99-77.2 0 0 .6.96c4.75 2.05 14.52-.17 11.1-7.19-1.12-2.31-5.06-3.83-7.45-5.22a1.03 1.02 7.8 0 1-.46-.6m19.02 14.033a10.67 9.95 96.4 0 0 11.078-9.494 10.67 9.95 96.4 0 0-8.699-11.712 10.67 9.95 96.4 0 0-11.077 9.494 10.67 9.95 96.4 0 0 8.699 11.712M128.5 87.75l-.29-.1a.41.41 0 0 1-.27-.46q.63-3.47-2.54-2.3a.99.99 0 0 0-.65.93v17.93a1 1 0 0 0 1 1h1.24a1 1 0 0 0 1-1.03c-.16-6.25-1.19-17.11 6.14-16.3a1 1 0 0 0 1.11-1.06l-.06-.94a1 1 0 0 0-.92-.93q-3.8-.3-5.49 3.03a.34.15-64.3 0 1-.27.23" vector-effect="non-scaling-stroke"/><path stroke="#85a6c4" d="M102.716 85.383a.64.64 0 0 0-.639-.641l-1.92-.004a.64.64 0 0 0-.64.64l-.033 18.7a.64.64 0 0 0 .639.64l1.92.004a.64.64 0 0 0 .64-.64l.033-18.7m135.774.398q-.29-1.48-2.4-.5a.99.98 78 0 0-.58.9l-.04 17.49a1 1 0 0 0 .66.94q2.97 1.1 2.6-2.34-.62-5.78.2-11.26.39-2.65 2.98-3.35c8.9-2.4 6.31 11.36 6.35 16.01a1.01 1-1.9 0 0 1.07.99l1.22-.08a1 .99 89.1 0 0 .94-.98c.13-6.39 2.43-19.64-7.91-18.84q-1.16.09-3.56 1.67a1 1 0 0 1-1.53-.65m52.97.26q-.34-1.55-2.28-.88a1 .99-9.5 0 0-.68.94v17.61a1.01 1 84.8 0 0 1.18.99l1.14-.22a1 .99 82.9 0 0 .81-1.05q-.65-9.29.09-11.69c1.55-5.03 8.74-6.64 9.59-.16q.77 5.91.25 11.86a1.01 1-83.3 0 0 .85 1.08l.93.13a1 1 0 0 0 1.15-.98c.07-8.1 2.38-19.74-7.94-18.92q-.94.07-3.54 1.89a1 1 0 0 1-1.55-.6m20.45 9.73 11.52-.07a1 1 0 0 0 .98-.86c.88-6.08-3.12-11.24-9.4-10.02-8.71 1.68-9.83 15.85-1.84 19.57q4.51 2.11 9.55-.97.88-.53.81-1.45a1 1 0 0 0-1.45-.81q-8.14 4.16-11.11-4.05a1 1 0 0 1 .94-1.34m-31.05 8.07q.37 1.35 2.13.92a1 1 0 0 0 .76-.97V86.25a1 1 0 0 0-1-1h-1.02a.99.99 0 0 0-1 1.03q.16 5.22-.09 10.42c-.2 4.2-4 7.92-8.02 4.73-2.54-2.01-1.64-11.91-1.63-15.18a1 .99.3 0 0-1-1h-1.22a1 1 0 0 0-1 .98c-.15 7.39-2.16 20.71 8.89 18.52q.96-.19 1.89-.89.38-.28.75-.56a1.01 1-25.7 0 1 1.56.54" vector-effect="non-scaling-stroke"/><path stroke="#8cb0d1" d="M9.37 104.69q-.02 1.3-.05 2.72a1 .99-85.5 0 0 .86 1.01l17.25 2.37a1.01 1.01 0 0 0 1.14-.99l.1-16.27a1.01 1 90 0 0-1-1.01l-17.13-.07a1.01 1-89.7 0 0-1 1q-.04 5.56-.17 11.24m20.34 6.19a.33.33 0 0 0 .29.33l24.16 3.35a.33.33 0 0 0 .38-.33l-.01-21.41a.33.33 0 0 0-.33-.33l-24.13.01a.33.33 0 0 0-.33.33l-.03 18.05" vector-effect="non-scaling-stroke"/><path stroke="#85a6c4" d="M145.251 102.64a7.87 6.64 90.5 0 0 6.709-7.812 7.87 6.64 90.5 0 0-6.571-7.928 7.87 6.64 90.5 0 0-6.709 7.812 7.87 6.64 90.5 0 0 6.571 7.928m36.236-.02a7.85 6.65 89.8 0 0 6.623-7.873 7.85 6.65 89.8 0 0-6.677-7.827 7.85 6.65 89.8 0 0-6.623 7.873 7.85 6.65 89.8 0 0 6.677 7.827M311.32 91.48q-.96 1.53.85 1.53l8.21-.01a1 1 0 0 0 1-1.09q-.41-4.4-5.08-4.33-2.57.04-4.98 3.9" vector-effect="non-scaling-stroke"/></g><path fill="#fff" d="M0 0h333v187H0V0Zm54.71 90.4.05-20.23a1 1 0 0 0-1.14-1l-23.14 3.29a1.01 1 86.1 0 0-.86 1l.16 16.97a1 .99.6 0 0 .98.99q10.12.19 20.24.03.09 0 1.37-.12.6-.06 1.14.05a1 1 0 0 0 1.2-.98Zm-26.38 1.15a.34.34 0 0 0 .34-.34l-.1-18.1a.34.34 0 0 0-.38-.34l-18.4 2.56a.34.34 0 0 0-.29.34v15.38a.34.34 0 0 0 .34.34l18.49.16Zm170.16-7.75q-.09-1.88.26-3.72c.43-2.2 2.01-3.14 4.13-2.42a1 .99 18.4 0 0 1.27-.63q.37-1.11-1.09-2.48a1 .99 60.1 0 0-.91-.25q-6.08 1.42-6.66 6.24c-.2 1.63 1.23 4.98-2.34 4.24a1 1 0 0 0-1.17.73q-.67 2.53 2.35 1.95a1 1 0 0 1 1.19.99l-.06 15.2a1 .99 2.8 0 0 .91 1l1.04.09a1 .99 2.6 0 0 1.09-.99V88.41a1 1 0 0 1 1.02-1l5.99.12a1 1 0 0 1 .98.99q.04 4.7 0 9.43c-.06 5.08 1.9 8.8 7.61 6.56a1.01 1-5.1 0 0 .62-.73q.36-1.79-1.39-1.45-3.64.73-3.68-1.82l-.2-11.99a1 1 0 0 1 1-1.02h3.21a1 .99-1.6 0 0 1-1.05l-.04-.75a1 1 0 0 0-1-.95h-3.12a1 1 0 0 1-1-1v-3.44a1 .99 82.3 0 0-1.26-.96l-1 .27a1.01 1 82.5 0 0-.74.97v3.16a1 1 0 0 1-1 1h-6.01a1 1 0 0 1-1-.95Zm-95.31-6.23a2.04 2.04 0 0 0-2.04-2.04 2.04 2.04 0 0 0-2.04 2.04 2.04 2.04 0 0 0 2.04 2.04 2.04 2.04 0 0 0 2.04-2.04ZM68.5 85.44q0-3.75 1.53-.32l8.58 19.2q.89 1.97 1.82.02 4.86-10.18 9.62-21.7c.06-.15.07-.16.25-.14a.26.23-86.1 0 1 .2.25v20.92a1 1 0 0 0 .99 1l1.25.02a1 1 0 0 0 1.01-1V77.75a1 1 0 0 0-1-1h-2.42a1.01 1-77.5 0 0-.91.59l-8.9 19.95q-.92 2.06-1.83-.01l-8.77-19.93a1 .99 78.2 0 0-.91-.6h-2.75a1 1 0 0 0-1 1l.05 25.91a.99.99 0 0 0 .62.92q.81.34 1.72.2a.99.99 0 0 0 .85-.98V85.44Zm161.295-7.264a.67.67 0 0 0-.667-.673l-1.82-.006a.67.67 0 0 0-.673.668l-.09 25.86a.67.67 0 0 0 .668.672l1.82.006a.67.67 0 0 0 .672-.668l.09-25.86ZM257.2 88.74q.08 5.37.17 10.77.1 6.24 6.37 5.28 1.7-.26 1.54-1.6a1 1 0 0 0-1.16-.86q-3.74.63-3.83-3.3-.1-5.12.02-10.3a1.01 1-89.1 0 1 1-.98h2.82a1.01 1 3.2 0 0 1-.89l.05-.5a1 1 0 0 0-.99-1.11h-2.94a1 1 0 0 1-1-1v-3.42a1 1 0 0 0-1.21-.98l-1.01.22a1 1 0 0 0-.79.99l.02 3.18a1 1 0 0 1-1.21.98q-2.41-.51-2.25 1.61a.99.98-2.1 0 0 1 .92h1.4a1 1 0 0 1 1 .99Zm-141.88 13.68c-10.77-1.91-4.7-20.12 4.44-14.59q2.31 1.4 1.44-2.15a1.01 1-87.3 0 0-.64-.71c-16.86-5.85-21.1 24.14.1 19.51a1.01 1 81.6 0 0 .78-1.05l-.06-.93a1 1 0 0 0-1.48-.81q-2.12 1.17-4.58.73Zm28.828 2.9a10.65 9.95 96.1 0 0 11.026-9.533 10.65 9.95 96.1 0 0-8.762-11.647 10.65 9.95 96.1 0 0-11.026 9.533 10.65 9.95 96.1 0 0 8.762 11.647Zm17.042-14.03q-1.16-4.23 3.27-4.32c1.62-.04 6.14 2.92 3.74-1.77a.98.98 0 0 0-.59-.49c-3.81-1.2-8.7-.12-9.96 4.02-1.37 4.49 3.04 6.72 7.14 8.4a.98.93 82.8 0 1 .45.37q3.21 4.92-3.29 5-1.26.02-3.05-.92a1 1 0 0 0-1.46.84l-.04.92a1 .99-77.2 0 0 .6.96c4.75 2.05 14.52-.17 11.1-7.19-1.12-2.31-5.06-3.83-7.45-5.22a1.03 1.02 7.8 0 1-.46-.6Zm19.02 14.033a10.67 9.95 96.4 0 0 11.078-9.494 10.67 9.95 96.4 0 0-8.699-11.712 10.67 9.95 96.4 0 0-11.077 9.494 10.67 9.95 96.4 0 0 8.699 11.712ZM128.5 87.75l-.29-.1a.41.41 0 0 1-.27-.46q.63-3.47-2.54-2.3a.99.99 0 0 0-.65.93v17.93a1 1 0 0 0 1 1h1.24a1 1 0 0 0 1-1.03c-.16-6.25-1.19-17.11 6.14-16.3a1 1 0 0 0 1.11-1.06l-.06-.94a1 1 0 0 0-.92-.93q-3.8-.3-5.49 3.03a.34.15-64.3 0 1-.27.23Zm-25.784-2.367a.64.64 0 0 0-.639-.641l-1.92-.004a.64.64 0 0 0-.64.64l-.033 18.7a.64.64 0 0 0 .639.64l1.92.004a.64.64 0 0 0 .64-.64l.033-18.7Zm135.774.397q-.29-1.48-2.4-.5a.99.98 78 0 0-.58.9l-.04 17.49a1 1 0 0 0 .66.94q2.97 1.1 2.6-2.34-.62-5.78.2-11.26.39-2.65 2.98-3.35c8.9-2.4 6.31 11.36 6.35 16.01a1.01 1-1.9 0 0 1.07.99l1.22-.08a1 .99 89.1 0 0 .94-.98c.13-6.39 2.43-19.64-7.91-18.84q-1.16.09-3.56 1.67a1 1 0 0 1-1.53-.65Zm52.97.26q-.34-1.55-2.28-.88a1 .99-9.5 0 0-.68.94v17.61a1.01 1 84.8 0 0 1.18.99l1.14-.22a1 .99 82.9 0 0 .81-1.05q-.65-9.29.09-11.69c1.55-5.03 8.74-6.64 9.59-.16q.77 5.91.25 11.86a1.01 1-83.3 0 0 .85 1.08l.93.13a1 1 0 0 0 1.15-.98c.07-8.1 2.38-19.74-7.94-18.92q-.94.07-3.54 1.89a1 1 0 0 1-1.55-.6Zm20.45 9.73 11.52-.07a1 1 0 0 0 .98-.86c.88-6.08-3.12-11.24-9.4-10.02-8.71 1.68-9.83 15.85-1.84 19.57q4.51 2.11 9.55-.97.88-.53.81-1.45a1 1 0 0 0-1.45-.81q-8.14 4.16-11.11-4.05a1 1 0 0 1 .94-1.34Zm-31.05 8.07q.37 1.35 2.13.92a1 1 0 0 0 .76-.97V86.25a1 1 0 0 0-1-1h-1.02a.99.99 0 0 0-1 1.03q.16 5.22-.09 10.42c-.2 4.2-4 7.92-8.02 4.73-2.54-2.01-1.64-11.91-1.63-15.18a1 .99.3 0 0-1-1h-1.22a1 1 0 0 0-1 .98c-.15 7.39-2.16 20.71 8.89 18.52q.96-.19 1.89-.89.38-.28.75-.56a1.01 1-25.7 0 1 1.56.54Zm-271.49.85q-.02 1.3-.05 2.72a1 .99-85.5 0 0 .86 1.01l17.25 2.37a1.01 1.01 0 0 0 1.14-.99l.1-16.27a1.01 1 90 0 0-1-1.01l-17.13-.07a1.01 1-89.7 0 0-1 1q-.04 5.56-.17 11.24Zm20.34 6.19a.33.33 0 0 0 .29.33l24.16 3.35a.33.33 0 0 0 .38-.33l-.01-21.41a.33.33 0 0 0-.33-.33l-24.13.01a.33.33 0 0 0-.33.33l-.03 18.05Z"/><path fill="#1860a2" d="M54.71 90.4a1 1 0 0 1-1.2.98q-.54-.11-1.14-.05-1.28.12-1.37.12-10.12.16-20.24-.03a1 .99.6 0 1-.98-.99l-.16-16.97a1.01 1 86.1 0 1 .86-1l23.14-3.29a1 1 0 0 1 1.14 1l-.05 20.23Zm-26.38 1.15-18.49-.16a.34.34 0 0 1-.34-.34V75.67a.34.34 0 0 1 .29-.34l18.4-2.56a.34.34 0 0 1 .38.34l.1 18.1a.34.34 0 0 1-.34.34Z"/><path fill="#0a4d89" d="M199.49 84.75h6.01a1 1 0 0 0 1-1v-3.16a1.01 1 82.5 0 1 .74-.97l1-.27a1 .99 82.3 0 1 1.26.96v3.44a1 1 0 0 0 1 1h3.12a1 1 0 0 1 1 .95l.04.75a1 .99-1.6 0 1-1 1.05h-3.21a1 1 0 0 0-1 1.02l.2 11.99q.04 2.55 3.68 1.82 1.75-.34 1.39 1.45a1.01 1-5.1 0 1-.62.73c-5.71 2.24-7.67-1.48-7.61-6.56q.04-4.73 0-9.43a1 1 0 0 0-.98-.99l-5.99-.12a1 1 0 0 0-1.02 1v15.34a1 .99 2.6 0 1-1.09.99l-1.04-.09a1 .99 2.8 0 1-.91-1l.06-15.2a1 1 0 0 0-1.19-.99q-3.02.58-2.35-1.95a1 1 0 0 1 1.17-.73c3.57.74 2.14-2.61 2.34-4.24q.58-4.82 6.66-6.24a1 .99 60.1 0 1 .91.25q1.46 1.37 1.09 2.48a1 .99 18.4 0 1-1.27.63c-2.12-.72-3.7.22-4.13 2.42q-.35 1.84-.26 3.72a1 1 0 0 0 1 .95Z"/><circle cx="101.14" cy="77.57" r="2.04" fill="#0a4d89"/><path fill="#0a4d89" d="M68.5 85.44v18.36a.99.99 0 0 1-.85.98q-.91.14-1.72-.2a.99.99 0 0 1-.62-.92l-.05-25.91a1 1 0 0 1 1-1h2.75a1 .99 78.2 0 1 .91.6l8.77 19.93q.91 2.07 1.83.01l8.9-19.95a1.01 1-77.5 0 1 .91-.59h2.42a1 1 0 0 1 1 1v25.94a1 1 0 0 1-1.01 1l-1.25-.02a1 1 0 0 1-.99-1V82.75a.26.23-86.1 0 0-.2-.25c-.18-.02-.19-.01-.25.14q-4.76 11.52-9.62 21.7-.93 1.95-1.82-.02l-8.58-19.2q-1.53-3.43-1.53.32Z"/><rect width="3.16" height="27.2" x="-1.58" y="-13.6" fill="#0a4d89" rx=".67" transform="rotate(.2 -25984.116 65411.374)"/><path fill="#0a4d89" d="M256.2 87.75h-1.4a.99.98-2.1 0 1-1-.92q-.16-2.12 2.25-1.61a1 1 0 0 0 1.21-.98l-.02-3.18a1 1 0 0 1 .79-.99l1.01-.22a1 1 0 0 1 1.21.98v3.42a1 1 0 0 0 1 1h2.94a1 1 0 0 1 .99 1.11l-.05.5a1.01 1 3.2 0 1-1 .89h-2.82a1.01 1-89.1 0 0-1 .98q-.12 5.18-.02 10.3.09 3.93 3.83 3.3a1 1 0 0 1 1.16.86q.16 1.34-1.54 1.6-6.27.96-6.37-5.28-.09-5.4-.17-10.77a1 1 0 0 0-1-.99Zm-140.88 14.67q2.46.44 4.58-.73a1 1 0 0 1 1.48.81l.06.93a1.01 1 81.6 0 1-.78 1.05c-21.2 4.63-16.96-25.36-.1-19.51a1.01 1-87.3 0 1 .64.71q.87 3.55-1.44 2.15c-9.14-5.53-15.21 12.68-4.44 14.59Zm28.828 2.9a10.65 9.95 96.1 0 1-8.762-11.647 10.65 9.95 96.1 0 1 11.026-9.533 10.65 9.95 96.1 0 1 8.762 11.647 10.65 9.95 96.1 0 1-11.026 9.533Zm1.103-2.68a7.87 6.64 90.5 0 0 6.709-7.812 7.87 6.64 90.5 0 0-6.571-7.928 7.87 6.64 90.5 0 0-6.709 7.812 7.87 6.64 90.5 0 0 6.571 7.928Z"/><path fill="#0a4d89" d="M161.65 91.89c2.39 1.39 6.33 2.91 7.45 5.22 3.42 7.02-6.35 9.24-11.1 7.19a1 .99-77.2 0 1-.6-.96l.04-.92a1 1 0 0 1 1.46-.84q1.79.94 3.05.92 6.5-.08 3.29-5a.98.93 82.8 0 0-.45-.37c-4.1-1.68-8.51-3.91-7.14-8.4 1.26-4.14 6.15-5.22 9.96-4.02a.98.98 0 0 1 .59.49c2.4 4.69-2.12 1.73-3.74 1.77q-4.43.09-3.27 4.32a1.03 1.02 7.8 0 0 .46.6Z"/><path fill="#0a4d89" d="M180.21 105.323a10.67 9.95 96.4 0 1-8.698-11.712 10.67 9.95 96.4 0 1 11.077-9.495 10.67 9.95 96.4 0 1 8.699 11.713 10.67 9.95 96.4 0 1-11.077 9.495Zm1.277-2.703a7.85 6.65 89.8 0 0 6.623-7.873 7.85 6.65 89.8 0 0-6.677-7.827 7.85 6.65 89.8 0 0-6.623 7.873 7.85 6.65 89.8 0 0 6.677 7.827Zm-52.717-15.1q1.69-3.33 5.49-3.03a1 1 0 0 1 .92.93l.06.94a1 1 0 0 1-1.11 1.06c-7.33-.81-6.3 10.05-6.14 16.3a1 1 0 0 1-1 1.03h-1.24a1 1 0 0 1-1-1V85.82a.99.99 0 0 1 .65-.93q3.17-1.17 2.54 2.3a.41.41 0 0 0 .27.46l.29.1a.34.15-64.3 0 0 .27-.23Z"/><rect width="3.2" height="19.98" x="-1.6" y="-9.99" fill="#0a4d89" rx=".64" transform="rotate(.1 -54225.728 57973.383)"/><path fill="#0a4d89" d="M240.02 86.43q2.4-1.58 3.56-1.67c10.34-.8 8.04 12.45 7.91 18.84a1 .99 89.1 0 1-.94.98l-1.22.08a1.01 1-1.9 0 1-1.07-.99c-.04-4.65 2.55-18.41-6.35-16.01q-2.59.7-2.98 3.35-.82 5.48-.2 11.26.37 3.44-2.6 2.34a1 1 0 0 1-.66-.94l.04-17.49a.99.98 78 0 1 .58-.9q2.11-.98 2.4.5a1 1 0 0 0 1.53.65Zm52.99.21q2.6-1.82 3.54-1.89c10.32-.82 8.01 10.82 7.94 18.92a1 1 0 0 1-1.15.98l-.93-.13a1.01 1-83.3 0 1-.85-1.08q.52-5.95-.25-11.86c-.85-6.48-8.04-4.87-9.59.16q-.74 2.4-.09 11.69a1 .99 82.9 0 1-.81 1.05l-1.14.22a1.01 1 84.8 0 1-1.18-.99V86.1a1 .99-9.5 0 1 .68-.94q1.94-.67 2.28.88a1 1 0 0 0 1.55.6Zm17.96 10.47q2.97 8.21 11.11 4.05a1 1 0 0 1 1.45.81q.07.92-.81 1.45-5.04 3.08-9.55.97c-7.99-3.72-6.87-17.89 1.84-19.57 6.28-1.22 10.28 3.94 9.4 10.02a1 1 0 0 1-.98.86l-11.52.07a1 1 0 0 0-.94 1.34Zm.35-5.63q-.96 1.53.85 1.53l8.21-.01a1 1 0 0 0 1-1.09q-.41-4.4-5.08-4.33-2.57.04-4.98 3.9ZM279.3 103.3q-.37.28-.75.56-.93.7-1.89.89c-11.05 2.19-9.04-11.13-8.89-18.52a1 1 0 0 1 1-.98h1.22a1 .99.3 0 1 1 1c-.01 3.27-.91 13.17 1.63 15.18 4.02 3.19 7.82-.53 8.02-4.73q.25-5.2.09-10.42a.99.99 0 0 1 1-1.03h1.02a1 1 0 0 1 1 1v17.54a1 1 0 0 1-.76.97q-1.76.43-2.13-.92a1.01 1-25.7 0 0-1.56-.54Z"/><ellipse fill="#fff" rx="7.87" ry="6.64" transform="rotate(90.5 25.687 119.414)"/><ellipse fill="#fff" rx="7.85" ry="6.65" transform="rotate(89.8 43.18 138.432)"/><path fill="#fff" d="M311.32 91.48q2.41-3.86 4.98-3.9 4.67-.07 5.08 4.33a1 1 0 0 1-1 1.09l-8.21.01q-1.81 0-.85-1.53Z"/><path fill="#1860a2" d="M9.37 104.69q.13-5.68.17-11.24a1.01 1-89.7 0 1 1-1l17.13.07a1.01 1-90 0 1 1 1.01l-.1 16.27a1.01 1.01 0 0 1-1.14.99l-17.25-2.37a1 .99-85.5 0 1-.86-1.01q.03-1.42.05-2.72Zm20.34 6.19.03-18.05a.33.33 0 0 1 .33-.33l24.13-.01a.33.33 0 0 1 .33.33l.01 21.41a.33.33 0 0 1-.38.33L30 111.21a.33.33 0 0 1-.29-.33Z"/></svg>